<svg xmlns="http://www.w3.org/2000/svg" version="1.1" xmlns:xlink="http://www.w3.org/1999/xlink" xmlns:svgjs="http://svgjs.com/svgjs" width="512" height="512" x="0" y="0" viewBox="0 0 512 512" style="enable-background:new 0 0 512 512" xml:space="preserve" class=""><g><g><path d="m427.4 129v-15c0-17.6-6.9-34.2-19.3-46.7-12.6-12.4-29.1-19.3-46.7-19.3-4.1 0-8.2.4-12.2 1.1l-263.3 45c-.1 0-.2 0-.3.1-31.1 5.9-53.6 33.1-53.6 64.8v33 16 176c0 35.3 28.7 64 64 64h320c35.3 0 64-28.7 64-64v-192c0-31.4-22.8-57.6-52.6-63zm-335.9-3.4 263.2-44.9c.1 0 .2 0 .3-.1 2.1-.4 4.2-.6 6.4-.6 18.7 0 34 15.2 34 34v14h-299.4c-5.4 0-10.7.7-15.7 2 3.3-2.1 7.1-3.6 11.2-4.4zm356.5 258.4c0 17.6-14.4 32-32 32h-320c-17.6 0-32-14.4-32-32v-176-16c0-17.6 14.4-32 32-32h320c17.6 0 32 14.4 32 32z" fill="#949494" data-original="#000000" class=""></path><circle cx="368" cy="288" r="32" fill="#949494" data-original="#000000" class=""></circle></g></g></svg>